<svg xmlns="http://www.w3.org/2000/svg" viewBox="0 0 300 60">
  <!-- Background shape -->
  <rect width="300" height="60" fill="none"/>
  
  <!-- DC Letters -->
  <path d="M20 10 L20 50 Q40 50 50 40 Q60 30 60 30 Q60 30 50 20 Q40 10 20 10" 
        fill="#2c3e50" 
        stroke="none"/>
  <path d="M70 10 A20 20 0 0 1 70 50 A20 20 0 0 1 70 10" 
        fill="#3498db" 
        stroke="none"/>
        
  <!-- Collective text -->
  <text x="100" y="35" 
        font-family="Arial, sans-serif" 
        font-size="24" 
        fill="#2c3e50">COLLECTIVE</text>
        
  <!-- Car icon -->
  <path d="M250 25 L270 25 L275 30 L280 30 L285 25 L290 25 L290 35 L285 35 L285 40 L275 40 L275 35 L250 35 Z" 
        fill="#e74c3c"/>
  <circle cx="260" cy="37" r="3" fill="#2c3e50"/>
  <circle cx="280" cy="37" r="3" fill="#2c3e50"/>
</svg>