<svg xmlns="http://www.w3.org/2000/svg" viewBox="0 0 400 100">
  <!-- Support icon -->
  <circle cx="50" cy="50" r="30" fill="#3498db"/>
  <path d="M35 50 C35 35 65 35 65 50 L65 65 L55 65 L55 70 L45 70 L45 65 L35 65 Z" 
        fill="white"/>
  <circle cx="50" cy="40" r="5" fill="white"/>
  
  <!-- Insurance icon -->
  <circle cx="150" cy="50" r="30" fill="#2c3e50"/>
  <path d="M150 25 L170 35 L170 65 L150 75 L130 65 L130 35 Z" 
        fill="white"/>
  <path d="M145 45 L155 55 L165 40" 
        stroke="white" 
        fill="none" 
        stroke-width="3"/>
  
  <!-- Location icon -->
  <circle cx="250" cy="50" r="30" fill="#e74c3c"/>
  <path d="M250 25 C265 25 275 35 275 50 C275 70 250 85 250 85 C250 85 225 70 225 50 C225 35 235 25 250 25" 
        fill="white"/>
  <circle cx="250" cy="45" r="8" fill="#e74c3c"/>
  
  <!-- Clock icon -->
  <circle cx="350" cy="50" r="30" fill="#3498db"/>
  <circle cx="350" cy="50" r="25" fill="none" stroke="white" stroke-width="3"/>
  <path d="M350 35 L350 50 L365 50" 
        stroke="white" 
        fill="none" 
        stroke-width="3"/>
</svg>