<svg xmlns="http://www.w3.org/2000/svg">
  <!-- Facebook Icon -->
  <symbol id="icon-facebook" viewBox="0 0 24 24">
    <path d="M18 2h-3a5 5 0 0 0-5 5v3H7v4h3v8h4v-8h3l1-4h-4V7a1 1 0 0 1 1-1h3z" fill="#64748b"/>
  </symbol>
  
  <!-- Twitter Icon -->
  <symbol id="icon-twitter" viewBox="0 0 24 24">
    <path d="M23 3a10.9 10.9 0 0 1-3.14 1.53 4.48 4.48 0 0 0-7.86 3v1A10.66 10.66 0 0 1 3 4s-4 9 5 13a11.64 11.64 0 0 1-7 2c9 5 20 0 20-11.5a4.5 4.5 0 0 0-.08-.83A7.72 7.72 0 0 0 23 3z" fill="#64748b"/>
  </symbol>
  
  <!-- Instagram Icon -->
  <symbol id="icon-instagram" viewBox="0 0 24 24">
    <rect x="2" y="2" width="20" height="20" rx="5" fill="#64748b"/>
    <circle cx="12" cy="12" r="4" fill="none" stroke="white" stroke-width="2"/>
    <circle cx="18" cy="6" r="1.5" fill="white"/>
  </symbol>
</svg>