<svg xmlns="http://www.w3.org/2000/svg" viewBox="0 0 180 60">
  <defs>
    <linearGradient id="socialGold" x1="0%" y1="0%" x2="100%" y2="0%">
      <stop offset="0%" style="stop-color:#FFD700;stop-opacity:1" />
      <stop offset="100%" style="stop-color:#FFA500;stop-opacity:1" />
    </linearGradient>
    <filter id="neonSocial">
      <feGaussianBlur in="SourceGraphic" stdDeviation="1" result="blur" />
      <feColorMatrix in="blur" type="matrix" values="1 0 0 0 0  0 0.8 0 0 0  0 0.6 0 0 0  0 0 0 18 -7" result="neon" />
      <feComposite in="SourceGraphic" in2="neon" operator="over" />
    </filter>
  </defs>

  <!-- Facebook -->
  <g transform="translate(30, 30)" filter="url(#neonSocial)">
    <circle cx="0" cy="0" r="25" fill="#2c3e50"/>
    <path d="M-5 -15 L-5 25 M-15 -5 L5 -5 M-5 -15 C-5 -15 5 -15 5 -5" 
          stroke="url(#socialGold)" 
          fill="none" 
          stroke-width="2"/>
  </g>

  <!-- Twitter -->
  <g transform="translate(90, 30)" filter="url(#neonSocial)">
    <circle cx="0" cy="0" r="25" fill="#2c3e50"/>
    <path d="M-15 -10 C-15 -10 -5 -15 5 -10 C15 -5 15 0 15 0 C15 10 -5 15 -15 10" 
          stroke="url(#socialGold)" 
          fill="none" 
          stroke-width="2"/>
    <path d="M-10 -5 L15 -15" 
          stroke="url(#socialGold)" 
          fill="none" 
          stroke-width="2"/>
  </g>

  <!-- Instagram -->
  <g transform="translate(150, 30)" filter="url(#neonSocial)">
    <circle cx="0" cy="0" r="25" fill="#2c3e50"/>
    <rect x="-15" y="-15" width="30" height="30" rx="8" 
          stroke="url(#socialGold)" 
          fill="none" 
          stroke-width="2"/>
    <circle cx="0" cy="0" r="7" 
          stroke="url(#socialGold)" 
          fill="none" 
          stroke-width="2"/>
    <circle cx="8" cy="-8" r="2" 
          fill="url(#socialGold)"/>
  </g>
</svg>